<svg width="239" height="163" viewBox="0 0 239 163" fill="none" xmlns="http://www.w3.org/2000/svg">
<mask id="path-1-inside-1_7_476" fill="white">
<path d="M78.6184 161.937H30.8726V136.09H77.1905"/>
</mask>
<path d="M78.6184 161.937H30.8726V136.09H77.1905" fill="#111111" fill-opacity="0.6"/>
<path d="M30.8726 161.937H30.6731V162.136H30.8726V161.937ZM30.8726 136.09V135.891H30.6731V136.09H30.8726ZM78.6184 161.937V161.737H30.8726V161.937V162.136H78.6184V161.937ZM30.8726 161.937H31.072V136.09H30.8726H30.6731V161.937H30.8726ZM30.8726 136.09V136.29H77.1905V136.09V135.891H30.8726V136.09Z" fill="#94A3B8" mask="url(#path-1-inside-1_7_476)"/>
<path d="M45.0574 136.953L45.0693 151.771L49.2113 145.051L53.3534 151.771L57.0586 145.762L60.4428 151.254V136.867" stroke="#94A3B8" stroke-width="1.19654" stroke-linecap="round" stroke-linejoin="round"/>
<path d="M51.8321 52.1405L50.4182 46.9104" stroke="#94A3B8" stroke-width="1.19654" stroke-linecap="round" stroke-linejoin="round"/>
<path d="M79.3484 95.0221C79.6974 91.2877 80.7842 84.3633 71.7843 80.0648C62.7843 75.7663 57.2942 71.4936 54.8951 61.9293" stroke="#94A3B8" stroke-width="1.19654" stroke-linecap="round" stroke-linejoin="round"/>
<path d="M54.2185 52.2644L56.4616 60.5683C56.6797 61.3761 56.199 62.2078 55.3873 62.4254L54.2337 62.7346C53.422 62.9519 52.588 62.4726 52.3697 61.665L50.1265 53.3611C49.9084 52.5534 50.3884 51.722 51.2 51.5043L52.3536 51.1951C53.1653 50.9776 54.0002 51.4567 54.2185 52.2644Z" fill="#111111" fill-opacity="0.6" stroke="#94A3B8" stroke-width="0.199423"/>
<path d="M36.0177 77.5997L30.5814 77.5957" stroke="#94A3B8" stroke-width="1.19654" stroke-linecap="round" stroke-linejoin="round"/>
<path d="M36.7573 75.3434H45.3901C46.2309 75.3434 46.9126 76.0226 46.9126 76.8591V78.0485C46.9126 78.885 46.2309 79.5641 45.3901 79.5641H36.7573C35.9167 79.564 35.2358 78.8849 35.2358 78.0485V76.8591C35.2358 76.0227 35.9167 75.3436 36.7573 75.3434Z" fill="#111111" fill-opacity="0.6" stroke="#94A3B8" stroke-width="0.199423"/>
<path d="M45.7496 77.2461C45.7496 77.2461 65.7298 76.1258 75.0648 92.841" stroke="#94A3B8" stroke-width="1.19654" stroke-linecap="round" stroke-linejoin="round"/>
<path d="M163.904 114.725C169.266 114.725 173.077 115.972 173.332 127.992C173.588 140.011 173.053 150.877 183.583 150.738C193.313 150.609 191.151 146.687 195.648 146.86" stroke="#94A3B8" stroke-width="1.19654" stroke-linecap="round" stroke-linejoin="round"/>
<path d="M194.698 142.135H205.942C206.604 142.135 207.141 142.67 207.141 143.329V150.305C207.14 150.964 206.604 151.498 205.942 151.499H194.698C194.036 151.498 193.5 150.964 193.5 150.305V143.329C193.5 142.67 194.036 142.136 194.698 142.135Z" fill="#111111" fill-opacity="0.6" stroke="#94A3B8" stroke-width="0.199423"/>
<path d="M202.482 142.021L202.468 151.614" stroke="#94A3B8" stroke-width="1.19654" stroke-linejoin="round"/>
<path d="M204.961 144.592H212.371" stroke="#94A3B8" stroke-width="1.19654" stroke-linecap="round" stroke-linejoin="round"/>
<path d="M204.961 148.167H212.371" stroke="#94A3B8" stroke-width="1.19654" stroke-linecap="round" stroke-linejoin="round"/>
<path d="M168.141 6.45609V11.3505" stroke="#94A3B8" stroke-width="1.19654" stroke-linecap="round" stroke-linejoin="round"/>
<path d="M170.598 8.90326H165.686" stroke="#94A3B8" stroke-width="1.19654" stroke-linecap="round" stroke-linejoin="round"/>
<path d="M133.198 24.377V29.2695" stroke="#94A3B8" stroke-width="1.19654" stroke-linecap="round" stroke-linejoin="round"/>
<path d="M135.653 26.8243H130.741" stroke="#94A3B8" stroke-width="1.19654" stroke-linecap="round" stroke-linejoin="round"/>
<path d="M105 0.598267V5.49068" stroke="#94A3B8" stroke-width="1.19654" stroke-linecap="round" stroke-linejoin="round"/>
<path d="M107.455 3.0455H102.543" stroke="#94A3B8" stroke-width="1.19654" stroke-linecap="round" stroke-linejoin="round"/>
<path d="M75.4177 40.403V45.2954" stroke="#94A3B8" stroke-width="1.19654" stroke-linecap="round" stroke-linejoin="round"/>
<path d="M77.8746 42.8482H72.9608" stroke="#94A3B8" stroke-width="1.19654" stroke-linecap="round" stroke-linejoin="round"/>
<path d="M41.5117 21.4471V26.3415" stroke="#94A3B8" stroke-width="1.19654" stroke-linecap="round" stroke-linejoin="round"/>
<path d="M43.9666 23.8943H39.0548" stroke="#94A3B8" stroke-width="1.19654" stroke-linecap="round" stroke-linejoin="round"/>
<path d="M36.1494 93.9912V98.8837" stroke="#94A3B8" stroke-width="1.19654" stroke-linecap="round" stroke-linejoin="round"/>
<path d="M38.6042 96.4384H33.6924" stroke="#94A3B8" stroke-width="1.19654" stroke-linecap="round" stroke-linejoin="round"/>
<path d="M26.2878 53.4972V58.3916" stroke="#94A3B8" stroke-width="1.19654" stroke-linecap="round" stroke-linejoin="round"/>
<path d="M28.7447 55.9444H23.8309" stroke="#94A3B8" stroke-width="1.19654" stroke-linecap="round" stroke-linejoin="round"/>
<path d="M190.371 67.5408V72.4352" stroke="#94A3B8" stroke-width="1.19654" stroke-linecap="round" stroke-linejoin="round"/>
<path d="M192.828 69.988H187.916" stroke="#94A3B8" stroke-width="1.19654" stroke-linecap="round" stroke-linejoin="round"/>
<path d="M199.455 26.9613V31.8557" stroke="#94A3B8" stroke-width="1.19654" stroke-linecap="round" stroke-linejoin="round"/>
<path d="M201.909 29.4085H196.998" stroke="#94A3B8" stroke-width="1.19654" stroke-linecap="round" stroke-linejoin="round"/>
<path d="M217.618 98.8161V103.708" stroke="#94A3B8" stroke-width="1.19654" stroke-linecap="round" stroke-linejoin="round"/>
<path d="M220.075 101.261H215.161" stroke="#94A3B8" stroke-width="1.19654" stroke-linecap="round" stroke-linejoin="round"/>
<path d="M104.928 120.138C105.441 120.138 105.948 120.239 106.421 120.436C106.827 120.612 107.204 120.848 107.541 121.134L107.682 121.26C108.308 121.932 108.794 122.841 109.137 123.992V123.993C109.829 126.706 109.83 129.549 109.138 132.262C108.795 133.418 108.307 134.329 107.679 135C107.356 135.301 106.99 135.552 106.593 135.744L106.42 135.822C105.948 136.02 105.441 136.121 104.928 136.121C104.479 136.121 104.035 136.043 103.614 135.891L103.435 135.822C102.969 135.624 102.541 135.346 102.171 135C101.628 134.415 101.187 133.645 100.853 132.685L100.716 132.262C100.02 129.551 100.02 126.708 100.716 123.996C101.064 122.842 101.549 121.929 102.17 121.256C102.541 120.912 102.969 120.635 103.434 120.436L103.435 120.437C103.908 120.24 104.416 120.138 104.928 120.138ZM104.923 121.188C104.55 121.183 104.178 121.255 103.833 121.399C103.488 121.543 103.176 121.758 102.917 122.028L102.917 122.03C101.806 123.252 101.263 125.294 101.261 128.127C101.26 130.961 101.803 133.013 102.916 134.256L102.918 134.259C103.178 134.527 103.49 134.738 103.835 134.88C104.18 135.022 104.55 135.089 104.922 135.082V135.083L104.923 135.082L104.926 135.083L104.925 135.082C105.298 135.087 105.667 135.018 106.011 134.876C106.356 134.735 106.669 134.525 106.93 134.259L106.933 134.255C108.05 132.991 108.598 130.941 108.599 128.127C108.6 125.314 108.053 123.273 106.933 122.03L106.93 122.027C106.67 121.759 106.358 121.546 106.013 121.402C105.668 121.258 105.297 121.185 104.923 121.188Z" fill="#94A3B8" stroke="#94A3B8" stroke-width="0.199423"/>
<path d="M135.36 160.731C135.36 160.915 135.434 161.093 135.565 161.223C135.696 161.353 135.873 161.427 136.058 161.427C136.243 161.427 136.42 161.353 136.551 161.223C136.682 161.093 136.756 160.915 136.756 160.731V85.7289L148.29 104.107C148.353 104.207 148.44 104.29 148.543 104.347C148.639 104.4 148.746 104.428 148.856 104.432C148.944 104.472 149.04 104.494 149.137 104.495H170.424C170.438 104.495 170.451 104.493 170.464 104.492V162.498H75.6927V104.893L75.7924 104.903H115.476C115.619 104.902 115.759 104.857 115.876 104.774C115.986 104.696 116.069 104.588 116.119 104.463L135.36 85.0326V160.731ZM154.831 110.166L147.22 131.361L147.172 131.494H151.71V151.999H157.445V131.84H162.329L162.285 131.708L155.02 110.168L154.928 109.897L154.831 110.166ZM86.3978 116.606C85.5782 116.606 84.792 116.93 84.2123 117.507C83.6326 118.085 83.307 118.868 83.307 119.685V136.988C83.307 137.804 83.6326 138.588 84.2123 139.165C84.792 139.743 85.5782 140.068 86.3978 140.068H123.776C124.595 140.068 125.382 139.743 125.961 139.165C126.541 138.588 126.867 137.804 126.867 136.988V119.685C126.867 118.868 126.541 118.085 125.961 117.507C125.382 116.93 124.595 116.606 123.776 116.606H86.3978Z" fill="#94A3B8" stroke="#94A3B8" stroke-width="0.199423"/>
<path d="M95.3248 120.178C95.3942 120.177 95.4637 120.19 95.528 120.216C95.5923 120.242 95.6507 120.281 95.6998 120.33C95.7489 120.379 95.7879 120.437 95.8141 120.501C95.8402 120.565 95.853 120.633 95.8522 120.702V131.061H97.8463C97.9866 131.061 98.1213 131.117 98.2203 131.216C98.3193 131.314 98.3755 131.448 98.3756 131.587C98.3756 131.726 98.3194 131.86 98.2203 131.959C98.1213 132.058 97.9866 132.113 97.8463 132.113H95.8522V135.602C95.8526 135.707 95.8221 135.809 95.7643 135.895C95.7064 135.982 95.6237 136.05 95.527 136.09C95.4303 136.13 95.3241 136.14 95.2213 136.12C95.1185 136.1 95.0238 136.049 94.9498 135.976H94.9489C94.8992 135.927 94.86 135.869 94.8336 135.805C94.8205 135.773 94.8107 135.74 94.8043 135.706L94.7955 135.603V132.113H87.7584C87.6889 132.114 87.6197 132.101 87.5553 132.075C87.491 132.049 87.4323 132.011 87.3834 131.962L87.3824 131.961L87.316 131.882C87.2968 131.853 87.2812 131.823 87.2682 131.791C87.2422 131.727 87.2291 131.659 87.2311 131.59V131.586C87.2295 131.477 87.2625 131.37 87.3248 131.281V131.28L94.8893 120.388L94.8903 120.387C94.9373 120.318 95.0009 120.262 95.0758 120.226C95.1321 120.198 95.1933 120.182 95.2555 120.178H95.3248ZM94.6139 122.673L88.8922 130.904L88.7838 131.061H94.7955V122.412L94.6139 122.673Z" fill="#94A3B8" stroke="#94A3B8" stroke-width="0.199423"/>
<path d="M119.627 120.178C119.695 120.176 119.764 120.189 119.828 120.215C119.891 120.241 119.949 120.279 119.997 120.328V120.329L119.999 120.33C120.048 120.378 120.088 120.437 120.114 120.501C120.14 120.565 120.153 120.633 120.152 120.702V131.061H122.144L122.222 131.067C122.3 131.079 122.374 131.107 122.439 131.15C122.526 131.208 122.594 131.29 122.635 131.387C122.675 131.483 122.685 131.589 122.665 131.691C122.645 131.794 122.594 131.888 122.52 131.962C122.471 132.011 122.413 132.049 122.349 132.075C122.317 132.088 122.284 132.098 122.25 132.104L122.146 132.113H120.152V135.603C120.153 135.672 120.14 135.741 120.114 135.805C120.088 135.868 120.048 135.927 119.999 135.975C119.899 136.073 119.764 136.128 119.624 136.128C119.484 136.128 119.349 136.073 119.249 135.975C119.199 135.927 119.16 135.868 119.134 135.805C119.107 135.741 119.094 135.672 119.095 135.603V132.113H112.056C111.987 132.114 111.918 132.1 111.854 132.074C111.79 132.048 111.731 132.01 111.682 131.961C111.634 131.912 111.595 131.854 111.569 131.79C111.543 131.726 111.53 131.658 111.531 131.589V131.586C111.53 131.477 111.561 131.369 111.623 131.279L119.189 120.388V120.387C119.236 120.318 119.301 120.262 119.376 120.225C119.432 120.198 119.493 120.182 119.555 120.178H119.627ZM118.912 122.673L113.19 130.904L113.082 131.061H119.101V130.962L119.094 122.729L119.093 122.412L118.912 122.673Z" fill="#94A3B8" stroke="#94A3B8" stroke-width="0.199423"/>
<path d="M114.77 100.205V103.519L53.5488 103.54L53.6172 100.205H114.77Z" fill="#94A3B8" stroke="#94A3B8" stroke-width="0.199423"/>
<mask id="path-40-inside-2_7_476" fill="white">
<path d="M192.401 99.6921H149.736V103.206L192.399 103.224L192.397 99.7"/>
</mask>
<path d="M192.401 99.6921H149.736V103.206L192.399 103.224L192.397 99.7" fill="#94A3B8"/>
<path d="M149.736 99.6921V99.4927H149.537V99.6921H149.736ZM149.736 103.206H149.537V103.405L149.736 103.405L149.736 103.206ZM192.399 103.224L192.399 103.423L192.599 103.423L192.598 103.223L192.399 103.224ZM192.401 99.6921V99.4927H149.736V99.6921V99.8915H192.401V99.6921ZM149.736 99.6921H149.537V103.206H149.736H149.936V99.6921H149.736ZM149.736 103.206L149.736 103.405L192.399 103.423L192.399 103.224L192.399 103.024L149.737 103.006L149.736 103.206ZM192.399 103.224L192.598 103.223L192.596 99.6999L192.397 99.7L192.198 99.7001L192.2 103.224L192.399 103.224Z" fill="#94A3B8" mask="url(#path-40-inside-2_7_476)"/>
<mask id="path-42-inside-3_7_476" fill="white">
<path d="M192.389 98.3275L170.208 78.3764H163.27C163.27 78.3764 163.76 85.1718 157.648 86.1232C156.35 86.3815 153.121 84.256 151.564 79.9476C151.488 79.3636 152.804 88.4771 147.499 88.9359C140.464 88.9935 131.007 78.8055 131.007 78.8055H75.5914L53.5712 98.9234H115.095L133.215 80.619C133.327 80.5128 133.477 80.4544 133.632 80.4559C133.787 80.4575 133.935 80.519 134.046 80.6275C134.156 80.7359 134.22 80.8829 134.224 81.0373C134.228 81.1917 134.171 81.3416 134.066 81.4553L116.064 99.6305V102.68L135.45 83.094C135.529 83.0162 135.628 82.9613 135.735 82.9351L135.791 82.8914C135.926 82.8078 136.088 82.7808 136.242 82.8161C136.397 82.8515 136.531 82.9464 136.615 83.0801L148.538 102.082V99.3206L140.541 86.7887C140.456 86.6551 140.428 86.4933 140.462 86.3389C140.497 86.1845 140.592 86.0501 140.726 85.9653C140.86 85.8805 141.022 85.8522 141.177 85.8867C141.332 85.9211 141.467 86.0155 141.552 86.149L149.44 98.5102H192.385"/>
</mask>
<path d="M192.389 98.3275L170.208 78.3764H163.27C163.27 78.3764 163.76 85.1718 157.648 86.1232C156.35 86.3815 153.121 84.256 151.564 79.9476C151.488 79.3636 152.804 88.4771 147.499 88.9359C140.464 88.9935 131.007 78.8055 131.007 78.8055H75.5914L53.5712 98.9234H115.095L133.215 80.619C133.327 80.5128 133.477 80.4544 133.632 80.4559C133.787 80.4575 133.935 80.519 134.046 80.6275C134.156 80.7359 134.22 80.8829 134.224 81.0373C134.228 81.1917 134.171 81.3416 134.066 81.4553L116.064 99.6305V102.68L135.45 83.094C135.529 83.0162 135.628 82.9613 135.735 82.9351L135.791 82.8914C135.926 82.8078 136.088 82.7808 136.242 82.8161C136.397 82.8515 136.531 82.9464 136.615 83.0801L148.538 102.082V99.3206L140.541 86.7887C140.456 86.6551 140.428 86.4933 140.462 86.3389C140.497 86.1845 140.592 86.0501 140.726 85.9653C140.86 85.8805 141.022 85.8522 141.177 85.8867C141.332 85.9211 141.467 86.0155 141.552 86.149L149.44 98.5102H192.385" fill="#94A3B8"/>
<path d="M170.208 78.3764L170.341 78.2281L170.284 78.177H170.208V78.3764ZM163.27 78.3764V78.177H163.055L163.071 78.3908L163.27 78.3764ZM157.648 86.1232L157.617 85.926L157.609 85.9276L157.648 86.1232ZM151.564 79.9476L151.366 79.9733L151.369 79.9949L151.376 80.0154L151.564 79.9476ZM147.499 88.9359L147.501 89.1353L147.509 89.1353L147.516 89.1346L147.499 88.9359ZM131.007 78.8055L131.153 78.6698L131.094 78.606H131.007V78.8055ZM75.5914 78.8055V78.606H75.514L75.4569 78.6582L75.5914 78.8055ZM53.5712 98.9234L53.4367 98.7761L53.0572 99.1228H53.5712V98.9234ZM115.095 98.9234V99.1228H115.178L115.237 99.0637L115.095 98.9234ZM133.215 80.619L133.078 80.4738L133.073 80.4787L133.215 80.619ZM134.066 81.4553L134.208 81.5957L134.213 81.5906L134.066 81.4553ZM116.064 99.6305L115.923 99.4902L115.865 99.5485V99.6305H116.064ZM116.064 102.68H115.865V103.165L116.206 102.82L116.064 102.68ZM135.45 83.094L135.31 82.9521L135.308 82.9537L135.45 83.094ZM135.735 82.9351L135.782 83.1289L135.824 83.1187L135.858 83.0922L135.735 82.9351ZM135.791 82.8914L135.686 82.7221L135.677 82.7277L135.668 82.7344L135.791 82.8914ZM136.615 83.0801L136.784 82.9741L136.784 82.9738L136.615 83.0801ZM148.538 102.082L148.369 102.188L148.738 102.775V102.082H148.538ZM148.538 99.3206H148.738V99.2624L148.706 99.2134L148.538 99.3206ZM140.541 86.7887L140.373 86.8959L140.373 86.8959L140.541 86.7887ZM141.552 86.149L141.384 86.2563L141.384 86.2563L141.552 86.149ZM149.44 98.5102L149.272 98.6175L149.33 98.7096H149.44V98.5102ZM192.389 98.3275L192.523 98.1792L170.341 78.2281L170.208 78.3764L170.074 78.5247L192.256 98.4757L192.389 98.3275ZM170.208 78.3764V78.177H163.27V78.3764V78.5758H170.208V78.3764ZM163.27 78.3764C163.071 78.3908 163.071 78.3907 163.071 78.3907C163.071 78.3907 163.071 78.3907 163.071 78.3907C163.071 78.3908 163.071 78.391 163.071 78.3913C163.071 78.3919 163.071 78.3929 163.071 78.3943C163.071 78.3971 163.071 78.4014 163.072 78.4074C163.072 78.4193 163.073 78.4374 163.074 78.4613C163.076 78.5092 163.079 78.5804 163.079 78.6718C163.081 78.8547 163.076 79.1183 163.052 79.4379C163.003 80.0782 162.876 80.939 162.563 81.8267C161.939 83.5954 160.582 85.4647 157.617 85.9262L157.648 86.1232L157.679 86.3203C160.826 85.8303 162.28 83.8262 162.939 81.9594C163.267 81.0293 163.399 80.1318 163.45 79.4681C163.475 79.1359 163.48 78.8611 163.478 78.6687C163.477 78.5724 163.475 78.4967 163.473 78.4446C163.472 78.4185 163.471 78.3984 163.47 78.3845C163.47 78.3775 163.469 78.3722 163.469 78.3684C163.469 78.3665 163.469 78.3651 163.469 78.364C163.469 78.3635 163.469 78.363 163.469 78.3627C163.469 78.3625 163.469 78.3624 163.469 78.3623C163.469 78.3622 163.469 78.362 163.27 78.3764ZM157.648 86.1232L157.609 85.9276C157.344 85.9804 156.944 85.9145 156.451 85.6914C155.963 85.4709 155.406 85.1071 154.836 84.599C153.696 83.5835 152.519 82.0029 151.751 79.8798L151.564 79.9476L151.376 80.0154C152.166 82.2008 153.381 83.8371 154.57 84.8968C155.164 85.4264 155.755 85.8147 156.286 86.0548C156.812 86.2922 157.303 86.3952 157.687 86.3188L157.648 86.1232ZM151.564 79.9476L151.761 79.922C151.76 79.9132 151.759 79.9071 151.759 79.9035C151.759 79.9016 151.759 79.9009 151.759 79.9011C151.759 79.9011 151.759 79.9017 151.759 79.9019C151.759 79.9023 151.759 79.9037 151.759 79.9044C151.759 79.9059 151.759 79.9106 151.76 79.9139C151.76 79.9257 151.619 80.1113 151.405 80.0465C151.382 80.0104 151.366 79.9647 151.365 79.9594C151.364 79.9573 151.364 79.9541 151.363 79.9531C151.363 79.9525 151.363 79.9515 151.363 79.9512C151.363 79.951 151.363 79.9506 151.363 79.9506C151.363 79.9505 151.363 79.9507 151.363 79.9512C151.363 79.9517 151.363 79.9524 151.363 79.9533C151.364 79.9569 151.365 79.9628 151.366 79.9711C151.37 80.0041 151.377 80.0706 151.386 80.1661C151.404 80.3571 151.428 80.6633 151.443 81.0488C151.473 81.8208 151.464 82.9061 151.295 84.0208C151.125 85.1381 150.797 86.2684 150.197 87.143C149.603 88.0101 148.741 88.6283 147.482 88.7372L147.499 88.9359L147.516 89.1346C148.91 89.0141 149.873 88.3211 150.526 87.3686C151.174 86.4236 151.516 85.2261 151.689 84.0806C151.864 82.9326 151.872 81.8204 151.842 81.0335C151.827 80.6396 151.802 80.3259 151.783 80.1286C151.774 80.0299 151.766 79.96 151.762 79.9235C151.761 79.9143 151.76 79.9071 151.759 79.9018C151.759 79.8992 151.758 79.8966 151.758 79.8944C151.758 79.8934 151.758 79.8915 151.757 79.8893C151.757 79.888 151.756 79.8846 151.756 79.8823C151.755 79.8768 151.738 79.8311 151.715 79.795C151.502 79.7301 151.361 79.9157 151.361 79.9277C151.361 79.9311 151.361 79.936 151.362 79.9377C151.362 79.9404 151.362 79.9426 151.362 79.9435C151.362 79.9459 151.363 79.9485 151.363 79.951C151.364 79.9563 151.365 79.9638 151.366 79.9733L151.564 79.9476ZM147.499 88.9359L147.498 88.7365C145.784 88.7505 143.907 88.1396 142.044 87.1993C140.184 86.2602 138.354 85.0005 136.738 83.7353C135.123 82.4705 133.726 81.2035 132.732 80.2524C132.236 79.777 131.841 79.3808 131.57 79.1037C131.434 78.9651 131.33 78.8564 131.259 78.7824C131.224 78.7454 131.198 78.7171 131.18 78.6981C131.171 78.6887 131.164 78.6815 131.16 78.6767C131.157 78.6744 131.156 78.6726 131.155 78.6714C131.154 78.6709 131.154 78.6704 131.154 78.6701C131.153 78.67 131.153 78.6699 131.153 78.6699C131.153 78.6698 131.153 78.6698 131.007 78.8055C130.861 78.9411 130.861 78.9412 130.861 78.9413C130.861 78.9414 130.861 78.9415 130.861 78.9417C130.862 78.942 130.862 78.9425 130.863 78.9432C130.864 78.9445 130.866 78.9464 130.868 78.9489C130.873 78.954 130.88 78.9614 130.889 78.9712C130.907 78.9908 130.935 79.0197 130.97 79.0573C131.042 79.1326 131.148 79.2426 131.285 79.3825C131.558 79.6624 131.957 80.0617 132.457 80.5405C133.456 81.4979 134.863 82.7742 136.492 84.0493C138.12 85.3239 139.973 86.6004 141.864 87.5554C143.754 88.5091 145.697 89.1501 147.501 89.1353L147.499 88.9359ZM131.007 78.8055V78.606H75.5914V78.8055V79.0049H131.007V78.8055ZM75.5914 78.8055L75.4569 78.6582L53.4367 98.7761L53.5712 98.9234L53.7057 99.0706L75.7259 78.9527L75.5914 78.8055ZM53.5712 98.9234V99.1228H115.095V98.9234V98.7239H53.5712V98.9234ZM115.095 98.9234L115.237 99.0637L133.356 80.7593L133.215 80.619L133.073 80.4787L114.953 98.7831L115.095 98.9234ZM133.215 80.619L133.351 80.7641C133.426 80.6934 133.526 80.6543 133.63 80.6553L133.632 80.4559L133.634 80.2565C133.427 80.2544 133.228 80.3323 133.078 80.4739L133.215 80.619ZM133.632 80.4559L133.63 80.6553C133.734 80.6564 133.833 80.6975 133.906 80.7697L134.046 80.6275L134.186 80.4852C134.038 80.3405 133.841 80.2586 133.634 80.2565L133.632 80.4559ZM134.046 80.6275L133.906 80.7697C133.98 80.842 134.022 80.9397 134.025 81.0422L134.224 81.0373L134.423 81.0324C134.418 80.826 134.333 80.6299 134.186 80.4852L134.046 80.6275ZM134.224 81.0373L134.025 81.0422C134.027 81.1447 133.99 81.2443 133.92 81.32L134.066 81.4553L134.213 81.5906C134.353 81.4389 134.428 81.2388 134.423 81.0324L134.224 81.0373ZM134.066 81.4553L133.924 81.3149L115.923 99.4902L116.064 99.6305L116.206 99.7708L134.208 81.5956L134.066 81.4553ZM116.064 99.6305H115.865V102.68H116.064H116.264V99.6305H116.064ZM116.064 102.68L116.206 102.82L135.592 83.2343L135.45 83.094L135.308 82.9537L115.923 102.539L116.064 102.68ZM135.45 83.094L135.59 83.2359C135.643 83.1836 135.71 83.1466 135.782 83.1289L135.735 82.9351L135.688 82.7413C135.545 82.776 135.415 82.8488 135.31 82.9521L135.45 83.094ZM135.735 82.9351L135.858 83.0922L135.914 83.0485L135.791 82.8914L135.668 82.7344L135.612 82.7781L135.735 82.9351ZM135.791 82.8914L135.896 83.0608C135.986 83.005 136.094 82.9869 136.198 83.0105L136.242 82.8161L136.287 82.6217C136.081 82.5746 135.865 82.6107 135.686 82.7221L135.791 82.8914ZM136.242 82.8161L136.198 83.0105C136.301 83.0341 136.39 83.0975 136.446 83.1864L136.615 83.0801L136.784 82.9738C136.671 82.7954 136.492 82.6689 136.287 82.6217L136.242 82.8161ZM136.615 83.0801L136.446 83.1861L148.369 102.188L148.538 102.082L148.707 101.976L136.784 82.9741L136.615 83.0801ZM148.538 102.082H148.738V99.3206H148.538H148.339V102.082H148.538ZM148.538 99.3206L148.706 99.2134L140.71 86.6814L140.541 86.7887L140.373 86.8959L148.37 99.4279L148.538 99.3206ZM140.541 86.7887L140.71 86.6814C140.653 86.5926 140.634 86.4851 140.657 86.3825L140.462 86.3389L140.268 86.2953C140.222 86.5016 140.26 86.7176 140.373 86.8959L140.541 86.7887ZM140.462 86.3389L140.657 86.3825C140.68 86.2799 140.743 86.1904 140.833 86.1338L140.726 85.9653L140.619 85.7968C140.441 85.9098 140.314 86.0891 140.268 86.2953L140.462 86.3389ZM140.726 85.9653L140.833 86.1338C140.922 86.0772 141.031 86.0583 141.134 86.0813L141.177 85.8867L141.221 85.692C141.014 85.6461 140.798 85.6838 140.619 85.7968L140.726 85.9653ZM141.177 85.8867L141.134 86.0813C141.238 86.1044 141.328 86.1674 141.384 86.2563L141.552 86.149L141.721 86.0418C141.607 85.8636 141.427 85.7379 141.221 85.692L141.177 85.8867ZM141.552 86.149L141.384 86.2563L149.272 98.6175L149.44 98.5102L149.608 98.4029L141.721 86.0418L141.552 86.149ZM149.44 98.5102V98.7096H192.385V98.5102V98.3108H149.44V98.5102Z" fill="#94A3B8" mask="url(#path-42-inside-3_7_476)"/>
<mask id="path-44-inside-4_7_476" fill="white">
<path d="M135.534 83.2457C135.585 83.1552 135.658 83.0795 135.748 83.0261C135.837 82.9726 135.939 82.9434 136.043 82.9411C135.943 82.9152 135.838 82.9152 135.737 82.9411C135.639 83.0189 135.568 83.1254 135.534 83.2457Z"/>
</mask>
<path d="M135.534 83.2457C135.585 83.1552 135.658 83.0795 135.748 83.0261C135.837 82.9726 135.939 82.9434 136.043 82.9411C135.943 82.9152 135.838 82.9152 135.737 82.9411C135.639 83.0189 135.568 83.1254 135.534 83.2457Z" fill="#94A3B8"/>
<path d="M135.534 83.2457L135.342 83.1911L135.707 83.3436L135.534 83.2457ZM136.043 82.9411L136.047 83.1405L136.093 82.748L136.043 82.9411ZM135.737 82.9411L135.688 82.748L135.647 82.7585L135.614 82.7847L135.737 82.9411ZM135.534 83.2457L135.707 83.3436C135.741 83.2834 135.79 83.2329 135.85 83.1972L135.748 83.0261L135.645 82.8549C135.526 82.9261 135.428 83.027 135.36 83.1478L135.534 83.2457ZM135.748 83.0261L135.85 83.1972C135.91 83.1616 135.978 83.142 136.047 83.1405L136.043 82.9411L136.039 82.7417C135.9 82.7447 135.764 82.7837 135.645 82.8549L135.748 83.0261ZM136.043 82.9411L136.093 82.748C135.96 82.7137 135.82 82.7137 135.688 82.748L135.737 82.9411L135.787 83.1342C135.855 83.1167 135.926 83.1167 135.993 83.1342L136.043 82.9411ZM135.737 82.9411L135.614 82.7847C135.483 82.8884 135.388 83.0305 135.342 83.1911L135.534 83.2457L135.725 83.3003C135.748 83.2203 135.796 83.1493 135.861 83.0974L135.737 82.9411Z" fill="#94A3B8" mask="url(#path-44-inside-4_7_476)"/>
<path d="M159.06 44.3777C155.071 43.2872 152.197 43.9606 152.197 43.9606C149.661 38.3332 141.628 33.1051 141.628 33.1051C135.978 36.035 138.573 47.983 138.573 47.983L135.344 49.1887C131.308 44.3062 125.656 38.9649 124.027 38.8497C120.264 38.5835 120.134 55.3921 120.134 55.3921C110.979 60.8169 101.614 66.486 94.327 71.3704C94.5962 67.8804 96.2653 63.3714 100.334 57.8632C107.772 47.7824 109.415 34.4499 102.553 26.3872C92.923 15.0649 84.1006 18.9185 78.8537 23.9182C73.5471 28.9715 72.7394 37.8744 81.0474 31.959C89.4052 25.9999 93.5033 29.0867 97.424 36.4402C101.345 43.7937 89.2357 55.112 83.586 64.297C80.4172 69.4496 78.8557 74.5407 78.9235 78.7975H117.253C117.175 78.8849 117.099 78.9703 117.031 79.0557L118.932 78.7975H131.134C136.006 83.4674 147.427 92.1697 149.978 87.1541C151.264 84.6294 151.827 81.8604 151.292 79.2325C152.423 81.3837 155.961 87.462 159.036 85.7597C161.7 84.2858 163.822 80.1581 163.305 75.8278C165.288 74.0064 166.813 72.0677 167.768 70.0336C175.552 56.0814 162.599 45.3491 159.06 44.3777Z" stroke="#94A3B8" stroke-width="1.19654" stroke-linecap="round" stroke-linejoin="round"/>
<path d="M163.038 52.6927C167.796 45.4544 179.042 44.4214 179.042 44.4214" stroke="#94A3B8" stroke-width="1.19654" stroke-linecap="round" stroke-linejoin="round"/>
<path d="M165.028 58.5504C166.153 56.3098 174.457 51.6578 180.685 53.4673" stroke="#94A3B8" stroke-width="1.19654" stroke-linecap="round" stroke-linejoin="round"/>
<path d="M137.785 64.6669C134.381 63.5579 127.575 62.7968 122.366 67.781" stroke="#94A3B8" stroke-width="1.19654" stroke-linecap="round" stroke-linejoin="round"/>
<path d="M137.494 61.6821C134.207 58.8383 125.471 58.0612 119.416 62.63" stroke="#94A3B8" stroke-width="1.19654" stroke-linecap="round" stroke-linejoin="round"/>
<path d="M125.846 40.2858C125.846 40.2858 121.52 50.5375 126.278 53.9917" stroke="#94A3B8" stroke-width="1.19654" stroke-linecap="round" stroke-linejoin="round"/>
<path d="M142.539 34.5135C142.539 34.5135 140.29 42.2603 142.366 47.5222" stroke="#94A3B8" stroke-width="1.19654" stroke-linecap="round" stroke-linejoin="round"/>
<path d="M141.839 55.6832C142.202 55.559 142.624 55.6729 143.019 55.9875C143.412 56.3013 143.766 56.8067 143.981 57.4301C144.196 58.0534 144.229 58.6681 144.112 59.1566C143.995 59.6465 143.733 59.9956 143.37 60.1198C143.008 60.2439 142.586 60.1289 142.191 59.8143C141.798 59.5005 141.443 58.9962 141.228 58.3728C141.013 57.7494 140.981 57.1337 141.098 56.6451C141.215 56.1556 141.477 55.8074 141.839 55.6832Z" fill="#94A3B8" stroke="#94A3B8" stroke-width="0.199423"/>
<path d="M153.515 51.9786C153.878 51.8544 154.3 51.9683 154.694 52.2829C155.088 52.5967 155.442 53.1021 155.657 53.7255C155.872 54.3488 155.905 54.9635 155.788 55.452C155.671 55.9419 155.409 56.291 155.046 56.4152C154.683 56.5393 154.262 56.4243 153.867 56.1097C153.474 55.7959 153.119 55.2916 152.904 54.6682C152.689 54.0448 152.657 53.4291 152.774 52.9405C152.891 52.451 153.152 52.1028 153.515 51.9786Z" fill="#94A3B8" stroke="#94A3B8" stroke-width="0.199423"/>
<path d="M153.21 57.9911C153.485 57.9123 153.738 58.0138 153.888 58.1932C154.037 58.3722 154.081 58.624 153.944 58.8544L152.51 61.2098C152.419 61.3517 152.275 61.4528 152.11 61.4911C151.946 61.5294 151.772 61.502 151.627 61.4149L151.626 61.4139L149.402 60.0927L149.401 60.0917L149.328 60.0438C149.26 59.9908 149.205 59.9224 149.166 59.8446C149.115 59.741 149.096 59.6242 149.111 59.5096C149.127 59.3953 149.177 59.288 149.254 59.202C149.312 59.1374 149.385 59.0874 149.465 59.0546L149.55 59.0262L153.21 57.9911Z" fill="#94A3B8" stroke="#94A3B8" stroke-width="0.199423"/>
<path d="M150.197 63.7401C152.489 66.6356 152.415 63.0286 152.052 61.1288C152.79 62.7802 154.742 65.1749 155.043 62.5199" stroke="#94A3B8" stroke-width="1.19654" stroke-linecap="round" stroke-linejoin="round"/>
<path d="M147.339 88.5764C147.108 87.9447 143.491 80.7779 139.915 78.0784" stroke="#94A3B8" stroke-width="1.19654" stroke-linecap="round" stroke-linejoin="round"/>
<path d="M145.048 75.953C145.22 76.0106 149.435 82.9053 149.603 87.613" stroke="#94A3B8" stroke-width="1.19654" stroke-linecap="round" stroke-linejoin="round"/>
<path d="M117.023 79.0597C120.31 75.0095 135.37 67.1693 143.746 70.9613C152.122 74.7533 152.828 81.5585 149.974 87.1581" stroke="#94A3B8" stroke-width="1.19654" stroke-linecap="round" stroke-linejoin="round"/>
<path d="M153.827 75.0869C153.827 75.0869 157.72 82.4524 157.805 86.0278" stroke="#94A3B8" stroke-width="1.19654" stroke-linecap="round" stroke-linejoin="round"/>
<path d="M158.671 73.4561C158.671 73.4561 161.525 82.0273 159.839 85.3445" stroke="#94A3B8" stroke-width="1.19654" stroke-linecap="round" stroke-linejoin="round"/>
<path d="M146.945 72.2206C147.996 70.5381 157.233 65.0399 161.325 70.7606C162.069 71.7995 162.881 73.8236 163.212 74.9201" stroke="#94A3B8" stroke-width="1.19654" stroke-linecap="round" stroke-linejoin="round"/>
<path d="M0.598267 162.098H237.598" stroke="#94A3B8" stroke-width="1.19654" stroke-linecap="round" stroke-linejoin="round"/>
</svg>
